<svg width="18" height="18" viewBox="0 0 18 18" fill="none" xmlns="http://www.w3.org/2000/svg">
<g clip-path="url(#clip0_0_2356)">
<path d="M16.8961 12.0024C16.4988 12.0024 16.1789 12.3223 16.1789 12.7196V16.1789H1.82109V12.7196C1.82109 12.3223 1.50117 12.0024 1.10391 12.0024C0.706641 12.0024 0.386719 12.3223 0.386719 12.7196V16.8961C0.386719 17.2934 0.706641 17.6133 1.10391 17.6133H16.8961C17.2934 17.6133 17.6133 17.2934 17.6133 16.8961V12.7196C17.6133 12.3223 17.2934 12.0024 16.8961 12.0024Z" fill="black"/>
<path d="M8.47266 12.8531C8.87696 13.261 9.37266 13.036 9.52383 12.8531L13.6477 8.41643C13.9184 8.12463 13.9008 7.67112 13.609 7.40041C13.3172 7.12971 12.8637 7.14729 12.5965 7.43909L9.71719 10.5364V1.21292C9.71719 0.815649 9.39727 0.495728 9 0.495728C8.60274 0.495728 8.28282 0.815649 8.28282 1.21292V10.5399L5.40352 7.4426C5.13281 7.15081 4.6793 7.13674 4.3875 7.40393C4.09571 7.67463 4.08164 8.12815 4.34883 8.41995L8.47266 12.8531Z" fill="black"/>
</g>
<defs>
<clipPath id="clip0_0_2356">
<rect width="18" height="18" fill="white"/>
</clipPath>
</defs>
</svg>
