<svg width="19" height="19" viewBox="0 0 19 19" fill="none" xmlns="http://www.w3.org/2000/svg">
<path d="M9.50014 0C4.26193 0 0.000488281 4.26167 0.000488281 9.49989C0.000488281 14.7383 4.26193 19 9.50014 19C14.7384 19 19 14.7383 19 9.49989C19 4.26167 14.7381 0 9.50014 0ZM9.50014 17.6265C5.0194 17.6265 1.37374 13.9809 1.37374 9.49989C1.37374 5.01892 5.01917 1.37348 9.50014 1.37348C13.9811 1.37348 17.6266 5.01892 17.6266 9.49989C17.6266 13.9809 13.9811 17.6265 9.50014 17.6265Z" fill="black"/>
<path d="M12.2487 10.3744C12.245 10.3744 12.2418 10.3744 12.2382 10.3744L10.1866 10.405V5.0361C10.1866 4.6568 9.87922 4.34937 9.49991 4.34937C9.1206 4.34937 8.81317 4.6568 8.81317 5.0361V11.1023C8.81317 11.1037 8.81363 11.105 8.81363 11.1064C8.81363 11.1087 8.81317 11.1108 8.81317 11.1126C8.81363 11.1405 8.81889 11.1668 8.82256 11.1936C8.82485 11.2103 8.82508 11.2275 8.82828 11.244C8.83446 11.2735 8.84476 11.301 8.8546 11.3287C8.85964 11.3431 8.86285 11.3582 8.8688 11.372C8.8807 11.4001 8.89672 11.4257 8.91206 11.4521C8.91916 11.4637 8.92442 11.4766 8.93198 11.488C8.94937 11.5134 8.97021 11.5361 8.99081 11.5592C8.99951 11.5688 9.0066 11.5798 9.01576 11.5892C9.03796 11.6112 9.06292 11.6297 9.08787 11.6487C9.09794 11.6563 9.10687 11.6654 9.11717 11.6725C9.14418 11.6908 9.17371 11.7053 9.20324 11.7194C9.21354 11.7243 9.2227 11.7311 9.23323 11.7355C9.26756 11.7499 9.30419 11.76 9.34127 11.7689C9.34814 11.7705 9.35455 11.7737 9.36165 11.7751C9.40606 11.784 9.45207 11.789 9.49922 11.789C9.50266 11.789 9.50632 11.789 9.50975 11.789L12.2585 11.7478C12.6376 11.7421 12.9405 11.4299 12.935 11.0508C12.9297 10.6751 12.6232 10.3744 12.2487 10.3744Z" fill="black"/>
</svg>
